<?xml version="1.0" standalone="no"?>
<!DOCTYPE svg PUBLIC "-//W3C//DTD SVG 20010904//EN"
 "http://www.w3.org/TR/2001/REC-SVG-20010904/DTD/svg10.dtd">
<svg version="1.0" xmlns="http://www.w3.org/2000/svg"
 width="700.000000pt" height="700.000000pt" viewBox="0 0 700.000000 700.000000"
 preserveAspectRatio="xMidYMid meet">
<metadata>
Created by potrace 1.11, written by Peter Selinger 2001-2013
</metadata>
<g transform="translate(0.000000,700.000000) scale(0.100000,-0.100000)"
fill="#000000" stroke="none">
<path d="M3215 6989 c-748 -64 -1435 -351 -1995 -835 -551 -475 -938 -1101
-1114 -1799 -34 -137 -72 -346 -88 -490 -17 -155 -17 -575 0 -730 63 -570 255
-1100 567 -1570 270 -405 644 -771 1047 -1024 457 -287 944 -456 1503 -523
139 -16 595 -16 730 0 847 103 1555 446 2131 1034 204 208 346 389 490 623
269 439 429 910 496 1460 16 130 16 600 0 730 -73 596 -246 1079 -557 1555
-139 213 -239 336 -449 548 -657 668 -1554 1038 -2496 1031 -91 -1 -210 -6
-265 -10z m465 -1488 c47 -12 193 -56 325 -97 226 -71 243 -75 282 -65 72 19
127 81 147 164 6 27 8 28 69 25 l61 -3 63 -600 c34 -330 62 -610 62 -622 1
-22 -3 -23 -73 -23 l-73 0 -6 38 c-19 117 -116 342 -206 477 -58 88 -217 254
-297 311 -167 119 -372 184 -581 184 -176 -1 -337 -64 -452 -179 -104 -102
-141 -197 -141 -362 0 -103 15 -170 57 -254 64 -127 203 -276 369 -393 46 -33
301 -197 566 -363 l482 -304 126 -125 c184 -182 285 -346 336 -550 28 -111 26
-374 -4 -483 -91 -332 -353 -606 -697 -727 -137 -48 -261 -70 -436 -77 -238
-9 -394 16 -693 113 -300 96 -347 100 -418 36 -29 -26 -43 -49 -55 -94 l-17
-59 -60 3 -61 3 -87 605 c-47 333 -87 613 -87 623 -1 15 9 17 69 17 49 0 70
-4 70 -12 0 -7 38 -89 83 -183 126 -256 206 -378 340 -513 148 -151 312 -248
505 -299 85 -23 118 -26 262 -27 180 -1 237 9 354 63 154 70 287 232 342 417
24 79 24 264 1 354 -27 103 -89 218 -158 294 -131 142 -373 317 -764 551 -558
334 -720 475 -839 726 -62 130 -86 234 -93 399 -6 164 12 291 61 420 122 327
415 549 803 610 101 16 366 5 463 -19z"/>
</g>
</svg>
